<svg xmlns="http://www.w3.org/2000/svg" width="200" height="282" viewBox="0 0 200 282" fill="none">
  <path d="M195.529 267.438C195.072 267.564 194.554 267.447 194.2 267.081C188.786 261.548 183.52 255.735 178.545 249.807C178.065 249.237 178.138 248.381 178.714 247.898C179.291 247.416 180.141 247.49 180.624 248.067C185.556 253.944 190.772 259.7 196.137 265.183C196.658 265.721 196.647 266.574 196.117 267.1C195.946 267.267 195.744 267.379 195.529 267.438Z" stroke="#F7C547" stroke-width="4"/>
  <path d="M195.07 267.635C194.913 267.678 194.749 267.695 194.583 267.678C164.774 264.808 135.043 251.98 110.858 231.558C90.4931 214.361 74.7769 192.382 65.6521 168.613C51.6155 168.157 37.2766 162.072 26.2969 151.526C13.922 139.643 5.62054 122.322 2.9179 102.746C-2.30968 64.8235 15.1413 24.4377 46.3447 2.25131C46.9555 1.81573 47.804 1.96106 48.2331 2.57346C48.6687 3.18406 48.5232 4.03231 47.9105 4.46137C17.5054 26.0761 0.49949 65.4256 5.59172 102.373C8.21238 121.347 16.2257 138.108 28.1614 149.571C38.3754 159.38 51.6002 165.147 64.6171 165.855C63.3326 162.296 62.1984 158.695 61.2197 155.072C57.1485 140.012 56.4371 127.321 59.0633 116.281C62.3886 102.272 71.6776 90.8974 83.3089 86.5845C96.5401 81.6757 112.532 87.3324 118.219 98.9245C120.847 104.271 121.621 111.021 120.528 118.982C117.258 142.771 99.036 163.244 77.1874 167.671C74.3591 168.248 71.4652 168.561 68.5587 168.626C77.5689 191.598 92.8574 212.817 112.599 229.49C136.364 249.557 165.576 262.162 194.838 264.986C195.581 265.055 196.13 265.719 196.054 266.464C196.003 267.04 195.594 267.497 195.065 267.643L195.07 267.635ZM67.5335 165.929C70.6154 165.915 73.6674 165.614 76.6496 165.009C77.6343 164.807 78.6101 164.573 79.5768 164.306C99.0093 158.944 114.872 140.211 117.844 118.605C118.863 111.192 118.172 104.967 115.786 100.116C110.681 89.7193 96.2464 84.687 84.2481 89.1221C73.4574 93.1187 64.8183 103.766 61.702 116.902C59.1916 127.496 59.8874 139.749 63.8426 154.362C64.8951 158.253 66.1294 162.114 67.5335 165.929Z" stroke="#F7C547" stroke-width="4"/>
  <path d="M177.532 279.073C177.049 279.206 176.511 279.066 176.154 278.666C175.663 278.106 175.714 277.248 176.273 276.75C181.296 272.307 187.011 268.819 193.254 266.379C193.693 266.209 194.181 266.018 194.33 265.794C194.749 265.173 195.592 265.017 196.214 265.436C196.835 265.855 196.99 266.697 196.572 267.319C195.953 268.235 194.962 268.62 194.239 268.904C188.294 271.226 182.849 274.549 178.069 278.777C177.911 278.919 177.726 279.012 177.53 279.066L177.532 279.073Z" stroke="#F7C547" stroke-width="4"/>
</svg>