<svg xmlns="http://www.w3.org/2000/svg" width="70" height="65" viewBox="0 0 70 65" fill="none">
  <path d="M4.69125 59.2636C3.97299 59.2636 3.3767 58.7014 3.33604 57.9766L2.00118 30.1567C1.98085 29.6622 2.22475 29.2016 2.63809 28.9374C3.0582 28.68 3.57998 28.6665 4.01364 28.9036L19.009 37.2488C23.7522 26.0789 27.9603 14.5499 31.5177 2.96003C31.6803 2.43168 32.1546 2.05234 32.7035 2.00493C33.2456 1.95751 33.7808 2.25556 34.0248 2.75682L49.5826 34.37L60.8105 21.195C61.1561 20.7954 61.7048 20.626 62.213 20.7683C62.7212 20.9105 63.1008 21.344 63.1821 21.8656C64.9981 33.5978 66.4007 45.5399 67.3426 57.3602C67.4035 58.1053 66.8479 58.7623 66.1025 58.8165C65.3639 58.8707 64.7067 58.322 64.6457 57.5769C63.7851 46.8066 62.5452 35.928 60.9528 25.2119L50.3076 37.6959C50.0095 38.0414 49.5623 38.2243 49.1083 38.1633C48.6543 38.1091 48.2612 37.8246 48.058 37.4182L33.0896 6.99719C29.5728 18.0655 25.4801 29.0458 20.9063 39.6942C20.7572 40.0464 20.4591 40.3174 20.1 40.4393C19.7408 40.5612 19.3411 40.5273 19.0023 40.3377L4.81995 32.4462L6.03968 57.8275C6.07356 58.5727 5.49766 59.2094 4.75229 59.2433C4.73197 59.2433 4.70479 59.2433 4.68447 59.2433L4.69125 59.2636Z" stroke="#F7C547" stroke-width="3"/>
  <path d="M4.244 62.5219C3.49864 62.5219 2.88879 61.919 2.88879 61.1671C2.88879 60.422 3.49186 59.8124 4.244 59.8124C24.7754 59.7785 45.5711 59.0673 66.0619 57.6854C66.8072 57.638 67.4509 58.2002 67.5051 58.9453C67.5525 59.6904 66.9902 60.3407 66.2448 60.3881C45.6999 61.77 24.8364 62.488 4.25079 62.5219H4.244Z" stroke="#F7C547" stroke-width="3"/>
</svg>