<svg xmlns="http://www.w3.org/2000/svg" width="247" height="13" viewBox="0 0 247 13" fill="none">
  <path d="M27.884 12.7244C27.1861 12.7244 26.5898 12.1892 26.5356 11.478C26.4746 10.7329 27.0303 10.0758 27.7757 10.0149C69.6923 6.57378 112.083 4.73808 154.528 4.52809C135.027 4.10812 115.614 3.94555 96.4509 3.77621C65.254 3.51203 32.9932 3.23431 1.75562 6.38411C1.00348 6.45862 0.346158 5.91671 0.271622 5.1716C0.197085 4.42649 0.739196 3.76265 1.48456 3.68814C32.8712 0.51802 65.2066 0.795748 96.478 1.0667C145.442 1.48667 196.072 1.92019 245.632 6.56022C246.364 6.62796 246.913 7.27147 246.859 8.00304C246.805 8.73461 246.168 9.29005 245.443 9.25618C172.946 5.65254 99.7847 6.81763 27.9992 12.7108C27.9586 12.7108 27.9247 12.7108 27.884 12.7108V12.7244Z" fill="#F7C547"/>
</svg>